<mxfile host="app.diagrams.net" modified="2022-01-12T08:38:45.509Z" agent="5.0 (Windows NT 10.0; Win64; x64) AppleWebKit/537.36 (KHTML, like Gecko) Chrome/96.0.4664.110 Safari/537.36" etag="q2zyEx7x-tG4ywdZzifR" version="16.2.2" type="github">
  <diagram id="8lj43bK-UHaRPTInZg22" name="Page-1">
    <mxGraphModel dx="1422" dy="772" grid="1" gridSize="10" guides="1" tooltips="1" connect="1" arrows="1" fold="1" page="1" pageScale="1" pageWidth="827" pageHeight="1169" math="0" shadow="0">
      <root>
        <mxCell id="0" />
        <mxCell id="1" parent="0" />
        <mxCell id="bYFlIpg2cuC0v6252xqg-1" value="6" style="whiteSpace=wrap;html=1;aspect=fixed;fontSize=18;" vertex="1" parent="1">
          <mxGeometry x="320" y="240" width="80" height="80" as="geometry" />
        </mxCell>
        <mxCell id="bYFlIpg2cuC0v6252xqg-2" value="8" style="whiteSpace=wrap;html=1;aspect=fixed;fontSize=18;" vertex="1" parent="1">
          <mxGeometry x="320" y="160" width="80" height="80" as="geometry" />
        </mxCell>
        <mxCell id="bYFlIpg2cuC0v6252xqg-3" value="3" style="whiteSpace=wrap;html=1;aspect=fixed;fontSize=18;" vertex="1" parent="1">
          <mxGeometry x="400" y="160" width="80" height="80" as="geometry" />
        </mxCell>
        <mxCell id="bYFlIpg2cuC0v6252xqg-4" value="4" style="whiteSpace=wrap;html=1;aspect=fixed;fontSize=18;" vertex="1" parent="1">
          <mxGeometry x="400" y="240" width="80" height="80" as="geometry" />
        </mxCell>
        <mxCell id="bYFlIpg2cuC0v6252xqg-5" value="2" style="whiteSpace=wrap;html=1;aspect=fixed;fontSize=18;" vertex="1" parent="1">
          <mxGeometry x="240" y="160" width="80" height="80" as="geometry" />
        </mxCell>
        <mxCell id="bYFlIpg2cuC0v6252xqg-6" value="1" style="whiteSpace=wrap;html=1;aspect=fixed;fontSize=18;" vertex="1" parent="1">
          <mxGeometry x="240" y="240" width="80" height="80" as="geometry" />
        </mxCell>
        <mxCell id="bYFlIpg2cuC0v6252xqg-7" value="7" style="whiteSpace=wrap;html=1;aspect=fixed;fontSize=18;" vertex="1" parent="1">
          <mxGeometry x="240" y="320" width="80" height="80" as="geometry" />
        </mxCell>
        <mxCell id="bYFlIpg2cuC0v6252xqg-9" value="" style="whiteSpace=wrap;html=1;aspect=fixed;" vertex="1" parent="1">
          <mxGeometry x="320" y="320" width="80" height="80" as="geometry" />
        </mxCell>
        <mxCell id="bYFlIpg2cuC0v6252xqg-10" value="5" style="whiteSpace=wrap;html=1;aspect=fixed;fontSize=18;" vertex="1" parent="1">
          <mxGeometry x="400" y="320" width="80" height="80" as="geometry" />
        </mxCell>
      </root>
    </mxGraphModel>
  </diagram>
</mxfile>
